<svg width="32" height="32" viewBox="0 0 32 32" fill="none" xmlns="http://www.w3.org/2000/svg">
<g clip-path="url(#clip0_1_5)">
<rect width="32" height="32" rx="3" fill="#562CDE"/>
<path d="M16.352 26.16C14.952 26.16 13.6827 25.88 12.544 25.32C11.4053 24.76 10.416 24.004 9.576 23.052C8.75467 22.0813 8.12 20.9987 7.672 19.804C7.224 18.5907 7 17.3493 7 16.08C7 14.7547 7.23333 13.4947 7.7 12.3C8.18533 11.0867 8.848 10.0133 9.688 9.08C10.5467 8.128 11.5453 7.38133 12.684 6.84C13.8227 6.28 15.064 6 16.408 6C17.808 6 19.0773 6.28933 20.216 6.868C21.3547 7.44667 22.3347 8.22133 23.156 9.192C23.9773 10.1627 24.612 11.2453 25.06 12.44C25.508 13.6347 25.732 14.8573 25.732 16.108C25.732 17.4333 25.4987 18.7027 25.032 19.916C24.5653 21.1107 23.9027 22.184 23.044 23.136C22.204 24.0693 21.2147 24.8067 20.076 25.348C18.9373 25.8893 17.696 26.16 16.352 26.16ZM9.548 16.08C9.548 17.088 9.70667 18.068 10.024 19.02C10.36 19.9533 10.8267 20.784 11.424 21.512C12.0213 22.24 12.74 22.8187 13.58 23.248C14.42 23.6773 15.3533 23.892 16.38 23.892C17.444 23.892 18.396 23.668 19.236 23.22C20.076 22.772 20.7853 22.1747 21.364 21.428C21.9613 20.6813 22.4093 19.8413 22.708 18.908C23.0253 17.9747 23.184 17.032 23.184 16.08C23.184 15.072 23.016 14.1013 22.68 13.168C22.3627 12.2347 21.896 11.404 21.28 10.676C20.6827 9.92933 19.964 9.35067 19.124 8.94C18.3027 8.51067 17.388 8.296 16.38 8.296C15.316 8.296 14.364 8.52 13.524 8.968C12.684 9.39733 11.9653 9.98533 11.368 10.732C10.7893 11.4787 10.3413 12.3187 10.024 13.252C9.70667 14.1667 9.548 15.1093 9.548 16.08Z" fill="white"/>
</g>
<defs>
<clipPath id="clip0_1_5">
<rect width="32" height="32" fill="white"/>
</clipPath>
</defs>
</svg>
